HIERARCHY
ROOT root
{
	OFFSET 0.000000 0.000000 0.000000
	CHANNELS 6 Xposition Yposition Zposition Zrotation Yrotation Xrotation
	JOINT lhip
	{
		OFFSET 0.058581 -0.082280 -0.017664
		CHANNELS 3 Zrotation Yrotation Xrotation
		JOINT lknee
		{
			OFFSET 0.043451 -0.386469 0.008037
			CHANNELS 3 Zrotation Yrotation Xrotation
			JOINT lankle
			{
				OFFSET -0.014790 -0.426874 -0.037428
				CHANNELS 3 Zrotation Yrotation Xrotation
				JOINT ltoe
				{
					OFFSET 0.041054 -0.060286 0.122042
					CHANNELS 3 Zrotation Yrotation Xrotation
					End Site
					{
						OFFSET 0.000000 0.000000 0.000000
					}
				}
			}
		}
	}
	JOINT rhip
	{
		OFFSET -0.060310 -0.090513 -0.013543
		CHANNELS 3 Zrotation Yrotation Xrotation
		JOINT rknee
		{
			OFFSET -0.043257 -0.383688 -0.004843
			CHANNELS 3 Zrotation Yrotation Xrotation
			JOINT rankle
			{
				OFFSET 0.019056 -0.420046 -0.034562
				CHANNELS 3 Zrotation Yrotation Xrotation
				JOINT rtoe
				{
					OFFSET -0.034840 -0.062106 0.130323
					CHANNELS 3 Zrotation Yrotation Xrotation
					End Site
					{
						OFFSET 0.000000 0.000000 0.000000
					}
				}
			}
		}
	}
	JOINT lowerback
	{
		OFFSET 0.004439 0.124404 -0.038385
		CHANNELS 3 Zrotation Yrotation Xrotation
		JOINT upperback
		{
			OFFSET 0.004488 0.137956 0.026820
			CHANNELS 3 Zrotation Yrotation Xrotation
			JOINT chest
			{
				OFFSET -0.002265 0.056032 0.002855
				CHANNELS 3 Zrotation Yrotation Xrotation
				JOINT lowerneck
				{
					OFFSET -0.013390 0.211636 -0.033468
					CHANNELS 3 Zrotation Yrotation Xrotation
					JOINT upperneck
					{
						OFFSET 0.010113 0.088937 0.050410
						CHANNELS 3 Zrotation Yrotation Xrotation
						End Site
						{
							OFFSET 0.000000 0.000000 0.000000
						}
					}
				}
				JOINT lclavicle
				{
					OFFSET 0.071702 0.114000 -0.018898
					CHANNELS 3 Zrotation Yrotation Xrotation
					JOINT lshoulder
					{
						OFFSET 0.122921 0.045205 -0.019046
						CHANNELS 3 Zrotation Yrotation Xrotation
						JOINT lelbow
						{
							OFFSET 0.255332 -0.015649 -0.022946
							CHANNELS 3 Zrotation Yrotation Xrotation
							JOINT lwrist
							{
								OFFSET 0.265709 0.012698 -0.007375
								CHANNELS 3 Zrotation Yrotation Xrotation
								End Site
								{
									OFFSET 0.000000 0.000000 0.000000
								}
							}
						}
					}
				}
				JOINT rclavicle
				{
					OFFSET -0.082954 0.112472 -0.023707
					CHANNELS 3 Zrotation Yrotation Xrotation
					JOINT rshoulder
					{
						OFFSET -0.113228 0.046853 -0.008472
						CHANNELS 3 Zrotation Yrotation Xrotation
						JOINT relbow
						{
							OFFSET -0.260127 -0.014369 -0.031269
							CHANNELS 3 Zrotation Yrotation Xrotation
							JOINT rwrist
							{
								OFFSET -0.269108 0.006794 -0.006027
								CHANNELS 3 Zrotation Yrotation Xrotation
								End Site
								{
									OFFSET 0.000000 0.000000 0.000000
								}
							}
						}
					}
				}
			}
		}
	}
}
MOTION
Frames: 7
Frame Time: 0.033333
-0.047430 0.126633 0.850553 178.478884 -0.348843 98.550630 8.900455 2.857207 -45.902445 -13.992516 5.625820 62.097986 5.121836 4.803054 -30.118695 0.000000 -0.000000 0.000000 -2.360744 6.021867 -41.126284 5.161186 -0.749776 70.181223 -0.079908 -3.753472 -37.215713 0.000000 -0.000000 0.000000 -1.858080 0.995016 44.713995 3.016634 0.510076 -1.869433 1.711844 0.934597 4.561395 -2.153363 6.478137 -8.818005 -0.020606 -3.268280 -5.679768 -20.726552 -1.378837 3.412657 -47.636410 0.878775 7.843315 7.290793 -52.359715 14.646422 -3.380516 -12.347036 -15.517231 21.060610 5.320675 5.290294 51.061521 -0.278885 10.066367 -14.214301 44.646775 4.860281 5.200741 8.448280 -7.427695 
-0.049346 0.152318 0.835111 179.192785 -0.394696 98.845369 8.705099 2.031312 -47.133890 -14.361640 5.433418 66.823643 5.198323 4.996263 -31.930273 0.000000 -0.000000 0.000000 -2.296652 5.888767 -41.579002 5.430650 -0.899751 74.497835 0.553641 -4.062847 -38.181113 0.000000 -0.000000 0.000000 -1.715326 1.114878 45.289158 3.054380 0.241316 -2.129650 1.564897 0.835277 3.826544 -2.443353 6.172539 -10.712795 0.520858 -3.730598 -6.952532 -20.443167 -3.603551 2.922839 -45.329939 -1.585020 7.105908 9.989452 -55.694919 11.207438 -0.173806 -12.545669 -14.865607 21.126808 6.616739 5.373800 50.259917 -0.447326 9.552506 -15.260111 44.785294 3.152736 2.208221 8.512454 -7.072466 
-0.050959 0.180516 0.828319 179.670415 -0.526975 99.611266 8.160067 0.816834 -46.663250 -14.430181 4.475736 68.487387 5.536616 5.855529 -34.377295 0.000000 -0.000000 0.000000 -1.730555 5.812148 -41.070100 5.434920 -0.205284 76.551815 1.392449 -4.659029 -38.729418 0.000000 -0.000000 0.000000 -1.963794 1.420110 44.838358 2.915688 0.263433 -2.957906 1.625850 0.762284 3.348333 -2.765188 5.459885 -12.779283 1.165307 -4.170948 -8.032676 -19.455954 -4.797037 2.330290 -43.480636 -3.864985 6.278016 13.323361 -60.594115 6.794362 4.367476 -12.986829 -14.784524 20.434797 7.164848 5.161574 49.640771 -1.274379 9.491075 -15.303212 46.352522 2.646318 0.056796 8.658022 -6.945916 
-0.051919 0.213024 0.833126 -179.869667 -0.410247 101.057202 7.373821 0.039093 -44.389217 -13.784871 3.137131 66.565290 6.201904 7.448949 -37.081662 0.000000 -0.000000 0.000000 -0.666781 5.743078 -38.922506 5.352405 0.995577 74.838081 2.229309 -5.458570 -39.360181 0.000000 -0.000000 0.000000 -2.437314 1.489703 42.625733 2.842626 0.436179 -4.021934 1.808606 0.816062 3.190950 -2.844239 4.877715 -15.120414 1.293524 -4.596615 -8.269043 -18.080209 -3.973642 1.690250 -42.113447 -5.319513 5.634864 17.659887 -67.750933 1.772058 7.981105 -13.840779 -15.846251 19.482532 6.178164 4.554023 48.845223 -2.614821 9.866151 -14.692892 49.635040 2.751613 -1.088080 9.034010 -7.158492 
-0.052343 0.252430 0.853924 -179.217019 0.118719 102.677770 6.816854 -0.420814 -40.280921 -13.364080 0.488194 61.619424 5.862289 8.283650 -37.393873 0.000000 -0.000000 0.000000 0.593241 5.310029 -34.266598 5.364750 2.260988 68.381609 2.935662 -5.854756 -38.764456 0.000000 -0.000000 0.000000 -2.588488 1.311095 38.571277 3.035310 0.600669 -4.569731 2.023874 0.790365 3.306014 -2.477095 4.636584 -16.882481 0.676455 -4.943518 -7.653510 -17.482720 -1.120005 1.241810 -40.563161 -5.624263 5.231516 25.892987 -76.473175 -6.013086 9.520852 -15.184537 -16.633942 19.160878 3.672072 3.757032 46.994618 -4.363284 10.563348 -13.321223 54.052267 3.286749 -2.604348 9.664200 -7.891696 
-0.052861 0.301264 0.894090 -178.441021 0.658625 103.184460 6.487150 -1.599983 -32.617540 -13.241510 -3.762147 52.987396 3.782616 8.200936 -33.840217 0.000000 -0.000000 0.000000 1.166321 4.385353 -26.491545 5.851578 3.740928 57.939734 4.765941 -4.309074 -33.391607 0.000000 -0.000000 0.000000 -2.357390 1.311851 33.786078 3.496315 0.540776 -4.133497 2.239924 0.703857 3.541985 -1.863531 4.399952 -16.553406 -0.281564 -5.116212 -6.237387 -17.750926 2.501456 0.761226 -38.910229 -5.003501 5.649387 45.311749 -83.476742 -24.862774 9.559592 -16.913562 -16.728640 19.471815 0.442037 2.837116 44.402149 -6.445995 11.635274 -11.920165 57.911893 3.552041 -4.949113 10.415764 -8.171785 
-0.054618 0.359305 0.950731 -177.795615 1.009732 102.115277 6.082998 -3.286508 -20.832694 -12.275484 -9.084857 39.872012 0.023498 7.971960 -25.134042 0.000000 -0.000000 0.000000 0.261355 3.228937 -17.427914 6.649939 5.708392 46.715999 9.775128 -0.222830 -18.521994 0.000000 -0.000000 0.000000 -1.471745 1.287242 28.475085 3.803845 0.485155 -2.338384 2.131853 0.671922 3.606516 -1.610037 3.604258 -12.545724 -1.013132 -4.585457 -3.675303 -18.557729 5.442571 0.420340 -37.565409 -4.039724 7.180836 71.611523 -86.030470 -51.718286 8.938644 -18.554748 -16.930727 19.915492 -2.450633 2.427714 42.206118 -8.257606 12.885404 -10.770059 58.856432 3.342580 -8.380167 11.323668 -6.891158 
